PathFileType	4	(X/Y/Z)	Patient4_TMGait_0pt8_01_right_14.trc.trc
DataRate	CameraRate	NumFrames	NumMarkers	Units	OrigDataRate	OrigDataStartFrame	OrigNumFrames
90.322580645161	90.322580645161	4	33	mm	90.322580645161	18	       141
Frame#	Time	Sacral			L.Shoulder			Chest			R.Shoulder			Neck			R.ASIS			L.ASIS			R.Thigh.Superior			R.Thigh.Lateral			R.Thigh.Inferior			R.Patella			L.Thigh.Superior			L.Thigh.Lateral			L.Thigh.Inferior			L.Patella			L.Shank.Superior			L.Shank.Lateral			L.Shank.Inferior			R.Shank.Superior			R.Shank.Lateral			R.Shank.Inferior			R.Heel			R.Midfoot.Superior			R.Midfoot.Lateral			R.Toe			L.Heel			L.Midfoot.Lateral			L.Midfoot.Superior			L.Toe			L.Elbow			L.Wrist			R.Elbow			R.Wrist			
		X1	Y1	Z1	X2	Y2	Z2	X3	Y3	Z3	X4	Y4	Z4	X5	Y5	Z5	X6	Y6	Z6	X7	Y7	Z7	X8	Y8	Z8	X9	Y9	Z9	X10	Y10	Z10	X11	Y11	Z11	X12	Y12	Z12	X13	Y13	Z13	X14	Y14	Z14	X15	Y15	Z15	X16	Y16	Z16	X17	Y17	Z17	X18	Y18	Z18	X19	Y19	Z19	X20	Y20	Z20	X21	Y21	Z21	X22	Y22	Z22	X23	Y23	Z23	X24	Y24	Z24	X25	Y25	Z25	X26	Y26	Z26	X27	Y27	Z27	X28	Y28	Z28	X29	Y29	Z29	X30	Y30	Z30	X31	Y31	Z31	X32	Y32	Z32	X33	Y33	Z33	

18	15.648214285714	881.427494126665	995.272420120102	426.399471222726	1062.304870150316	1431.586714490424	261.713345863364	1154.716767832847	1359.618233054948	427.381717936209	1058.514070060986	1425.685474395141	597.833728076492	1035.156032859739	1487.060061552530	417.903855113529	1105.525209782844	934.772647405969	551.839090525599	1099.973283254320	958.716208422107	276.855226863619	1189.114002062164	771.653461620643	522.168483674518	1155.329738047813	647.439666987500	599.731651985923	1246.784861647359	615.962757761051	520.511013202694	1286.095544433505	530.778565959847	541.502691489420	1097.674572347443	728.473711174098	302.956183625002	975.923488511508	636.948691015967	242.066652141369	1034.583377571633	542.046433101591	305.105056437152	1019.225765356775	477.848272497642	314.230685019819	987.582040932625	412.155309752240	308.142555500087	886.836485898844	304.023432099660	264.082247978031	934.269156678956	190.774807998552	335.660202737920	1265.239682553570	440.424425569692	549.461805416219	1205.526046961538	328.727460299098	610.464620793919	1271.763174365262	239.994704907519	560.124099859233	1172.220687693513	56.753011263158	525.606028488100	1334.368690766224	126.131873228806	575.944360085269	1251.759086605036	52.886982164729	604.712125055569	1455.206925307344	85.903068923300	610.361320052336	804.004006691204	39.044197758331	393.565869422933	868.431501709460	34.880730475909	305.152978306265	953.812204977802	95.840842757299	323.462377978058	1078.508549251810	45.418588999452	281.376568448255	1165.468755554951	1124.386296847624	95.484509885282	1416.793398070165	1064.020866471941	125.001325495658	924.935770764193	1103.937498540941	700.327280238613	889.374780677660	846.620889777981	719.362386432741	
19	15.659285714286	883.264054789898	993.216249223658	427.141622510517	1063.763643098834	1429.988489357283	263.203728232127	1155.896151434243	1357.901603068854	428.950688625704	1059.160622841277	1423.869963496268	599.140218169377	1036.095430692091	1485.113629975467	419.258516661931	1107.297316972538	932.539407300068	552.871887602372	1101.755408210046	956.964257257824	277.819330544431	1188.833814646621	767.310578545467	523.346805168914	1152.974787797340	643.355258770978	600.433937195687	1244.095615077964	611.375841164954	520.897299126103	1282.921541018186	527.964919029869	540.918972675574	1097.293757482837	726.369879888720	303.285560156917	974.435155466889	635.932419433274	242.416920740398	1031.990077220322	540.446565029295	305.603983584688	1015.901138373648	476.016492418052	314.627132549950	983.353478188055	410.765836723279	308.469175943370	881.122895355674	304.002164619711	264.177252211569	926.820843099115	190.049566854400	335.703213015110	1265.144026838160	437.828686424835	549.337913285420	1209.416354485511	323.861492225460	610.279140682075	1279.044553747991	237.556747434165	559.793121997347	1186.095105862870	50.858930042309	525.510831530712	1346.332588798102	125.520894259696	575.156729672405	1266.078476313545	49.645115958881	604.325962561718	1468.717999293860	89.140722935778	609.232757300598	795.073190329813	39.033576045515	393.431026042237	859.554992220742	34.823505925341	305.093391110801	945.057140892683	95.717623752635	323.459946034296	1069.728935652018	44.913973699878	281.361520618780	1169.220669820013	1124.617320187639	96.117748333016	1422.505932810102	1077.746880324108	128.119581247333	918.011946528844	1106.666994441428	701.227613742236	874.786324759423	850.831862624962	720.671962779769	
20	15.670357142857	885.236867472595	991.057873784401	428.198912989349	1065.173480546841	1428.266455250492	264.773640229281	1157.126319659736	1356.170879161440	430.595569726140	1059.906586725478	1422.078828481129	600.539527351978	1037.083200771888	1483.116719919108	420.704862901858	1109.299916515337	930.259384059459	554.052101306791	1103.620459729683	955.134300579714	278.944304421407	1189.018352918286	763.170100029130	524.591064434758	1151.155887872534	639.401560220152	600.999316455192	1241.980707636463	607.056619125823	521.205353243098	1280.075591331106	524.975415316897	540.218040879374	1097.368242552890	724.257791659610	303.746625456025	973.521498303303	634.760960864874	242.985237559173	1030.122491156855	538.721810090092	306.248833969018	1013.325030429788	473.953111807482	315.207227546398	979.761815454403	409.140934528680	308.950831604171	875.848275206409	303.964548312734	264.419526741102	919.560097719061	189.217449490578	335.805004714986	1264.787547040577	434.966568473776	549.046091402933	1212.041549690439	319.315382547311	609.658262349655	1284.278348049793	235.027955988819	559.077996443749	1196.253185766346	46.393771458175	524.935280035255	1355.132292056211	124.357309927946	573.731544044853	1276.540779226511	46.997947919242	603.442012261457	1478.520546157105	90.524937148476	607.497093540159	786.120111235741	39.024978157699	393.246046809824	850.693619086823	34.746655532224	305.012237443233	936.334306767526	95.593070037366	323.440071127009	1060.989065553405	44.374106886341	281.325714289765	1172.635051905706	1124.482919120317	97.009419736644	1427.037712710271	1090.562987413229	131.414631910822	911.572658461388	1109.488118358958	702.248531923655	861.846866512488	855.052333605082	721.830664967911	
21	15.681428571429	887.318082351428	988.856799586312	429.563390254515	1066.534404319777	1426.467379791546	266.423606720746	1158.405588678717	1354.469312339282	432.315944134547	1060.754519102025	1420.341349179544	602.039948435525	1038.121009814421	1481.118211033754	422.247740270452	1111.509987933968	927.998713741958	555.384532616918	1105.563608896150	953.263064954086	280.242358730444	1189.744967506176	759.382833812399	525.894098369114	1149.954816641147	635.692004341656	601.394174447782	1240.580079480077	603.153748688035	521.472130680107	1277.708622175637	521.905539700917	539.447663045939	1097.886786041004	722.154241252078	304.362511983483	973.159796409459	633.455913230362	243.798197296992	1028.976276633623	536.879940955755	307.040716263873	1011.512864252105	471.665917751030	315.952735779855	976.787697891928	407.299718099999	309.586929654048	870.999825450432	303.946680488914	264.821861564585	912.491204702314	188.314349531883	335.958004819659	1264.284288110015	431.910725981871	548.612796538589	1213.478222751193	315.123392322894	608.685367464553	1287.511072634312	232.350631624793	558.048405020682	1202.582597560362	43.217118783492	523.971779807415	1360.761149122957	122.511418814460	571.774120009451	1283.072934433456	44.816062655854	602.185955242066	1484.671255865144	89.888890794746	605.296384377321	777.145142592505	39.074316255078	392.999264212701	841.849223444191	34.667143374786	304.903935125429	927.657689182610	95.470457189479	323.388654655947	1052.291202050925	43.806133146575	281.264864633790	1175.679442223628	1124.003737601559	98.150538178531	1430.461103489742	1102.348610517490	134.849644308181	905.781885694475	1112.268064136543	703.364314072005	850.533975583279	859.102015577392	722.891614013491	
